<svg width="50" height="50" viewBox="0 0 50 50" fill="none" xmlns="http://www.w3.org/2000/svg">
<g clip-path="url(#clip0_33_109)">
<path d="M45.9652 19.0178C44.689 17.7443 43.0101 16.9513 41.2141 16.7739C39.4181 16.5964 37.616 17.0454 36.1143 18.0445L33.8965 19.5199C33.5825 18.7457 33.0124 18.1021 32.2811 17.6961L26.238 14.3458C26.1142 14.2772 25.9749 14.2412 25.8333 14.2411H21.6667C21.5073 14.2411 21.3513 14.2867 21.2171 14.3725C21.0829 14.4583 20.9761 14.5807 20.9095 14.7252C20.8429 14.8697 20.8193 15.0302 20.8413 15.1878C20.8634 15.3453 20.9302 15.4932 21.0339 15.6139L24.8548 20.0624H17.5V14.2411C17.5 14.0206 17.4122 13.8091 17.2559 13.6531C17.0996 13.4972 16.8877 13.4096 16.6667 13.4095H15C14.8628 13.4095 14.7277 13.4433 14.6068 13.5079C14.4858 13.5725 14.3827 13.666 14.3066 13.7799L11.5372 17.9254L8.08929 14.4847C7.93298 14.3288 7.72102 14.2412 7.5 14.2411H4.16667C4.02461 14.2411 3.88491 14.2774 3.76083 14.3464C3.63675 14.4154 3.53242 14.515 3.45773 14.6355C3.38305 14.7561 3.34051 14.8938 3.33413 15.0354C3.32776 15.177 3.35778 15.3179 3.42133 15.4447L5.90482 20.4014L4.15616 21.5647C4.09826 20.6766 3.77622 19.826 3.23123 19.1215C2.68625 18.4171 1.94309 17.8909 1.0968 17.6102C0.971535 17.5685 0.83814 17.5572 0.707609 17.577C0.577079 17.5969 0.45315 17.6475 0.346037 17.7245C0.238923 17.8016 0.15169 17.9029 0.0915269 18.0202C0.031364 18.1375 -6.72817e-06 18.2674 1.08238e-09 18.3992V30.8732C8.61218e-06 31.0049 0.0313894 31.1348 0.0915567 31.2521C0.151724 31.3694 0.238956 31.4707 0.346066 31.5478C0.453175 31.6248 0.577097 31.6754 0.707621 31.6952C0.838145 31.7151 0.971535 31.7038 1.0968 31.6621C1.94309 31.3814 2.68625 30.8552 3.23123 30.1508C3.77622 29.4463 4.09826 28.5957 4.15616 27.7076L5.83333 28.8234V34.1996C5.83334 34.4201 5.92115 34.6316 6.07742 34.7876C6.2337 34.9435 6.44566 35.0312 6.66667 35.0312C7.57281 35.03 8.46262 34.7904 9.24635 34.3365C10.0301 33.8827 10.68 33.2306 11.1306 32.446L12.9836 29.21H16.3214L11.9107 33.6115C11.7942 33.7278 11.7148 33.876 11.6827 34.0373C11.6505 34.1986 11.6671 34.3658 11.7301 34.5178C11.7932 34.6697 11.9 34.7996 12.037 34.891C12.1741 34.9824 12.3352 35.0311 12.5 35.0312H17.5C17.651 35.0312 17.7993 34.9902 17.9288 34.9127L28.8419 28.3784H30V29.0136L29.2547 30.5012C29.1764 30.6573 29.1494 30.8341 29.1774 31.0064C29.2054 31.1787 29.287 31.3378 29.4107 31.4612L31.0774 33.1244C31.2337 33.2804 31.4457 33.368 31.6667 33.368H33.3333C33.5544 33.368 33.7663 33.2804 33.9226 33.1244L35.5893 31.4612C35.713 31.3378 35.7946 31.1787 35.8226 31.0064C35.8506 30.8341 35.8236 30.6573 35.7453 30.5012L35 29.0136V28.3784H36.6667V30.0416C36.6667 30.9238 37.0179 31.7699 37.643 32.3937C38.2681 33.0175 39.1159 33.368 40 33.368C40.8841 33.368 41.7319 33.0175 42.357 32.3937C42.9821 31.7699 43.3333 30.9238 43.3333 30.0416V28.3784H46.6667C46.8106 28.3784 46.952 28.3412 47.0773 28.2704C47.2025 28.1997 47.3072 28.0978 47.3813 27.9746L49.8813 23.8166C49.9769 23.6576 50.0165 23.4712 49.9938 23.2871C49.9711 23.1031 49.8874 22.9318 49.756 22.8007L45.9652 19.0178ZM23.4785 15.9043H25.6174L31.4718 19.1499C31.8436 19.3565 32.1396 19.6762 32.3167 20.0624H27.0499L23.4785 15.9043ZM15.446 15.0727H15.8333V20.0624H13.6786L12.739 19.1247L15.446 15.0727ZM7.15485 15.9043L13.8215 22.5572H8.84837L5.51504 15.9043H7.15485ZM1.66667 25.2343V24.038L3.33333 23.6222V25.6501L1.66667 25.2343ZM2.5 21.8605V22.1158L1.66667 22.3237V19.8609C1.93107 20.1228 2.14086 20.4343 2.28389 20.7775C2.42693 21.1207 2.50038 21.4888 2.5 21.8605ZM1.66667 29.4114V26.9486L2.5 27.1565V27.4118C2.50038 27.7836 2.42693 28.1516 2.28389 28.4948C2.14086 28.838 1.93107 29.1496 1.66667 29.4114V29.4114ZM9.68343 31.6209C9.44963 32.028 9.13564 32.3837 8.76039 32.6665C8.38514 32.9493 7.95639 33.1533 7.5 33.2662V29.21H11.064L9.68343 31.6209ZM17.2692 33.368H14.5118L22.8452 25.052H28.4037C28.5706 25.0519 28.7328 25.1065 28.8656 25.2073C28.9984 25.3081 29.0944 25.4495 29.139 25.61C29.1835 25.7705 29.1741 25.9411 29.1122 26.0957C29.0503 26.2503 28.9394 26.3804 28.7963 26.466L28.3802 26.7152H28.3333V26.7432L17.2692 33.368ZM33.4213 29.5819L33.986 30.7089L32.9882 31.7048H32.0118L31.014 30.7089L31.5787 29.5819C31.6365 29.4664 31.6667 29.3391 31.6667 29.21V28.3784H33.3333V29.21C33.3333 29.3391 33.3635 29.4664 33.4213 29.5819V29.5819ZM41.6667 30.0416C41.6667 30.4827 41.4911 30.9057 41.1785 31.2176C40.866 31.5295 40.442 31.7048 40 31.7048C39.558 31.7048 39.134 31.5295 38.8215 31.2176C38.5089 30.9057 38.3333 30.4827 38.3333 30.0416V28.3784H41.6667V30.0416ZM46.1949 26.7152H30.6569C30.8057 26.3475 30.8617 25.9489 30.8199 25.5546C30.7781 25.1602 30.6399 24.7821 30.4174 24.4536C30.1948 24.1251 29.8948 23.8561 29.5437 23.6704C29.1926 23.4848 28.8011 23.388 28.4037 23.3888H22.5C22.279 23.3888 22.067 23.4764 21.9107 23.6323L17.9881 27.5468H6.91895L5 26.2701V23.0022L6.65596 21.9005L7.58799 23.7607C7.65721 23.8988 7.7636 24.015 7.89524 24.0962C8.02689 24.1774 8.17858 24.2204 8.33333 24.2204H15.8333C15.9981 24.2203 16.1593 24.1716 16.2963 24.0802C16.4333 23.9888 16.5401 23.8589 16.6032 23.707C16.6663 23.555 16.6828 23.3878 16.6506 23.2265C16.6185 23.0652 16.5392 22.917 16.4226 22.8007L15.3453 21.7256H33.3333C33.4979 21.7255 33.6587 21.6769 33.7956 21.5859L37.0388 19.4283C38.2198 18.6425 39.6373 18.2894 41.0498 18.429C42.4624 18.5686 43.7829 19.1922 44.7866 20.1939L48.1174 23.5177L46.1949 26.7152Z" fill="#2ABB94"/>
<path d="M40 30.8732C40.4602 30.8732 40.8333 30.5008 40.8333 30.0416C40.8333 29.5823 40.4602 29.21 40 29.21C39.5398 29.21 39.1667 29.5823 39.1667 30.0416C39.1667 30.5008 39.5398 30.8732 40 30.8732Z" fill="#2ABB94"/>
</g>
<defs>
<clipPath id="clip0_33_109">
<rect width="50" height="50" fill="white"/>
</clipPath>
</defs>
</svg>
