<svg width="50" height="50" viewBox="0 0 50 50" fill="none" xmlns="http://www.w3.org/2000/svg">
<path d="M25 1.47058C17.6471 1.47058 11.7647 7.35293 11.7647 14.7059V20.5882C9.26473 20.5882 7.35297 22.5 7.35297 25V44.1176C7.35297 46.6176 9.26473 48.5294 11.7647 48.5294H38.2353C40.7353 48.5294 42.6471 46.6176 42.6471 44.1176V25C42.6471 22.5 40.7353 20.5882 38.2353 20.5882V14.7059C38.2353 7.35293 32.353 1.47058 25 1.47058ZM39.7059 25V44.1176C39.7059 45 39.1177 45.5882 38.2353 45.5882H11.7647C10.8824 45.5882 10.2941 45 10.2941 44.1176V25C10.2941 24.1176 10.8824 23.5294 11.7647 23.5294H13.2353H36.7647H38.2353C39.1177 23.5294 39.7059 24.1176 39.7059 25ZM14.7059 20.5882V14.7059C14.7059 8.97058 19.2647 4.41176 25 4.41176C30.7353 4.41176 35.2941 8.97058 35.2941 14.7059V20.5882H14.7059Z" fill="#2ABB94"/>
<path d="M25 27.9412C22.5 27.9412 20.5883 29.8529 20.5883 32.3529C20.5883 34.2647 21.7647 35.8823 23.5294 36.4706V39.7059C23.5294 40.5882 24.1177 41.1765 25 41.1765C25.8824 41.1765 26.4706 40.5882 26.4706 39.7059V36.4706C28.2353 35.8823 29.4118 34.2647 29.4118 32.3529C29.4118 29.8529 27.5 27.9412 25 27.9412ZM25 33.8235C24.1177 33.8235 23.5294 33.2353 23.5294 32.3529C23.5294 31.4706 24.1177 30.8823 25 30.8823C25.8824 30.8823 26.4706 31.4706 26.4706 32.3529C26.4706 33.2353 25.8824 33.8235 25 33.8235Z" fill="#2ABB94"/>
</svg>
